<?xml version="1.0" encoding="utf-8"?>
<!-- Generator: Adobe Illustrator 19.1.0, SVG Export Plug-In . SVG Version: 6.00 Build 0)  -->
<svg version="1.1" xmlns="http://www.w3.org/2000/svg" xmlns:xlink="http://www.w3.org/1999/xlink" x="0px" y="0px"
	 viewBox="0 0 10424.8 5744" style="enable-background:new 0 0 10424.8 5744;" xml:space="preserve">
<style type="text/css">
	.st0{display:none;}
	.st1{fill:#2B1402;}
	.st2{fill:url(#SVGID_1_);}
	.st3{fill:#B78D42;}
	.st4{fill:url(#SVGID_2_);}
	.st5{clip-path:url(#SVGID_5_);fill:url(#SVGID_6_);}
	.st6{fill:#2A6E39;}
	.st7{fill:#094412;}
	.st8{fill:#EAE072;}
	.st9{fill:#C1B046;}
</style>
<g id="Layer_1" class="st0">
	
		<image style="display:inline;overflow:visible;" width="1265" height="742" xlink:href="5D25A29124EFC61F.jpg"  transform="matrix(0.75 0 0 0.75 3526 3034)">
	</image>
</g>
<g id="couch">
	<g id="Layer_3">
		<path class="st1" d="M7348.6,4032.7c91.6,260.7,66.9,627.2-52.9,884.3c158.5,59.9,458,45.8,517.9,0
			c59.9-45.8,70.5-553.2,70.5-553.2l-109.2-451L7348.6,4032.7z"/>
		<linearGradient id="SVGID_1_" gradientUnits="userSpaceOnUse" x1="5051.2065" y1="3515.3418" x2="5030.0679" y2="5618.7471">
			<stop  offset="0" style="stop-color:#361700"/>
			<stop  offset="1" style="stop-color:#74370A"/>
		</linearGradient>
		<path class="st2" d="M2054.8,3380.9c-422.8,549.6-459.8,798-459.8,1506.2c227.3,58.1,586.6,47.6,681.8,0
			c-105.7-264.2-51.3-751.4,87.2-1004.1c190.3,87.2,579,79.5,926.3,158.6c-123,372.5-128.3,560.1-104.5,1012
			c206.1,79.3,417.5,60.8,660.6,13.2c-84.6-425.4-103.1-758.4-26.4-977.7c163.8,2.6,364.7-26.4,406.9-37
			c50.1,74.3,132.1,171.8,391.1,148c259-23.8,346.2-113.6,404.3-185c0,153.3,74,298.6,256.3,298.6c148,0,174.4-158.3,198.2-264.2
			c79.3,84.6,477,358,617,47.6c158.5,59.5,389.8,52.8,825.8,31.7c436-21.1,647.4-26.4,787.5-76.6c47.6,348.8,63.4,700.3,55.5,1001.5
			c195.5,89.8,605.1,37,700.3,13.2c55.5-253.7-34.4-539.1-66.1-623.6c-31.7-84.6-89.8-243.1-140.1-306.5
			c-50.2-63.4-153.3-362-118.9-483.6c-377.9-92.5-2839.7-314.5-3126.8-314.5C4723.7,3338.6,2054.8,3380.9,2054.8,3380.9z"/>
	</g>
	<g>
		<path class="st3" d="M1836.8,4254.2c-3.5,38.2-1.8,60.8,25.1,40.3c22.3-17,17.2-72,17.2-92.5c0-20.5,24.2-266.9-93.8-399.7
			c-10.6-11.9-9.7,4,7.9,52.4C1810.8,3903.2,1854,4066.1,1836.8,4254.2z"/>
		<path class="st3" d="M1991.4,3643.4c11,61.6,96.9,528.5,121.6,627.2c24.7,98.7,13.2,201.6-30.4,57.6
			c-43.6-144-121.3-590.2-112.3-671.2C1978.2,3585.7,1983.8,3601.1,1991.4,3643.4z"/>
		<path class="st3" d="M3794.9,4101c-188.9,109.7-403,488.4-355.4,734.6c7.7,40,33.9,57.7,24.4-20.5
			c-11.1-91.8,79.5-316.4,174.6-480.3C3733.7,4171,3771.5,4138.9,3794.9,4101z"/>
		<g>
			<path class="st3" d="M3625.8,4095.9c0,0-1.5,1.8-4.3,5.2c-1.4,1.7-3.2,3.7-5.2,6.2c-2,2.5-4.2,5.3-6.7,8.4
				c-2.5,3.1-5.2,6.7-8.2,10.6c-1.5,1.9-3,4-4.5,6.1c-1.5,2.1-3.2,4.3-4.8,6.6c-1.7,2.2-3.3,4.7-5,7.1c-1.7,2.4-3.5,4.9-5.3,7.5
				c-1.8,2.6-3.6,5.3-5.4,8c-1.8,2.7-3.8,5.5-5.6,8.4c-7.6,11.5-15.6,24.2-23.7,37.7c-8.1,13.6-16.6,27.9-24.9,42.9
				c-8.5,15-16.9,30.7-25.2,46.7c-2.1,4-4.2,8-6.2,12.1c-2.1,4.1-4.1,8.1-6.2,12.2c-2.1,4.1-4.1,8.2-6.1,12.3
				c-2,4.1-4.1,8.2-6.1,12.3c-2,4.1-4,8.2-6,12.4c-2,4.1-3.9,8.3-5.9,12.4c-3.9,8.2-7.7,16.5-11.5,24.7c-3.7,8.2-7.4,16.3-11.1,24.4
				c-1.8,4-3.6,8-5.5,11.9c-1.8,3.9-3.6,7.9-5.4,11.8c-7.3,15.5-14.5,30.4-21.6,44.4c-1.7,3.5-3.5,7-5.2,10.4
				c-1.7,3.4-3.5,6.7-5.1,10.1c-3.3,6.6-6.6,13-9.8,19.1c-6.4,12.2-12.6,23.3-18.4,33c-2.9,4.9-5.7,9.4-8.4,13.6
				c-1.3,2.1-2.6,4.1-3.8,6c-1.3,1.9-2.5,3.7-3.6,5.4c-4.7,6.9-8.6,12.3-11.4,15.9c-1.4,1.8-2.5,3.2-3.3,4.1
				c-0.8,0.9-1.2,1.4-1.2,1.4l-0.1,0.1c-3.3,3.8-9,4.3-12.8,1c-2-1.7-3-4-3.2-6.4c0,0,0-0.6-0.1-1.8c-0.1-1.2-0.1-3-0.1-5.3
				c0-4.6,0-11.5,0.8-19.9c0.2-2.1,0.4-4.3,0.6-6.7c0.2-2.3,0.5-4.8,0.9-7.3c0.7-5,1.6-10.5,2.6-16.2c2.2-11.5,5.1-24.3,9.3-38
				c1-3.4,2.1-6.9,3.3-10.4c1.2-3.5,2.4-7.1,3.6-10.8c2.5-7.3,5.2-14.7,8.1-22.4c5.9-15.2,12.5-31.1,20.3-47.1
				c7.7-16.1,16.6-32.2,25.8-48.4c9.3-16.2,19.1-32.4,29.2-48.5c2.5-4,5.1-8,7.7-12c2.6-4,5.1-8,7.8-11.9c2.6-3.9,5.2-7.9,7.8-11.8
				c2.6-3.9,5.3-7.7,8-11.6c1.3-1.9,2.7-3.8,4-5.7c1.3-1.9,2.7-3.8,4-5.7c2.7-3.8,5.3-7.5,8-11.2c5.5-7.4,10.8-14.7,16.2-21.7
				c10.8-14.1,21.6-27.5,32.1-40c5.3-6.2,10.5-12.2,15.6-17.9c2.6-2.8,5-5.7,7.6-8.4c2.5-2.7,5-5.3,7.5-7.9
				c4.9-5.2,9.7-10,14.3-14.6c4.7-4.5,9.1-8.8,13.3-12.8c8.5-7.9,16.2-14.4,22.6-19.7c3.3-2.6,6.2-5,8.7-7c2.5-2,4.7-3.5,6.5-4.8
				c3.6-2.6,5.5-4,5.5-4c1.8-1.3,4.3-0.9,5.6,0.9C3627.1,4092.5,3627,4094.6,3625.8,4095.9z"/>
		</g>
		<path class="st3" d="M8233.8,4148.7c-66.1,67.8-134.8,743.7,117.2,897c-58.1-78.4-89.8-213.2-100.4-288.9
			c-10.6-75.8-27.1-138.8-33.5-179.9C8200.3,4469.4,8213.9,4280,8233.8,4148.7z"/>
		<path class="st3" d="M7999.9,3847.3c26.4,0,18.1,0.4,35.7,0c43.6,118.9,30.8,335.6-5.2,498.1c-36.6,165.2-73.6,317.1-72.3,409.6
			c1.3,92.5,0,117.1,0,184.1c0,25.6-25.3,83.3-60.7-71.8c-5.3-23.1,15.9-266.9,60.8-458.1c31.4-133.7,48.9-326.7,48.9-383.5
			S7999.9,3847.3,7999.9,3847.3z"/>
	</g>
	<linearGradient id="SVGID_2_" gradientUnits="userSpaceOnUse" x1="5010.9189" y1="4201.6118" x2="5010.9189" y2="647.8088">
		<stop  offset="0" style="stop-color:#74370A"/>
		<stop  offset="1" style="stop-color:#361700"/>
	</linearGradient>
	<path class="st4" d="M7148.5,2310.9c345.1-177.3,807-375.5,1472-462.7c320.7-42,588.1,27.6,740.2,151.1
		c130.8,106.1,194.4,523.4-214,985.3C8417.9,3809,8015.6,3832.7,6959.2,3920c-829.7,68.5-2424.8,31.5-2968.7,1.3
		c-528.8-29.4-1244-96.7-1782.4-313.6c-276-111.1-903.9-512.5-1297.4-1045.9c-362.7-491.5-583.5-1450,66.1-1929
		c946-697.6,2114.1,400.8,2426.1,713.2c507.1,507.6,1014.5,995.6,1539.5,1255.5c156.6,77.5,556.7,194.7,986.5,159.4
		C6559.1,2709.1,6960.3,2407.6,7148.5,2310.9z"/>
	<g>
		<defs>
			<path id="SVGID_3_" d="M6351.5,3814.3c951.3-5.3,1707-227.3,2119.3-591.9c412.2-364.7,591.9-803.3,222-951.3
				c-369.9-148-1157.4,190.3-1337.1,280.1c-179.7,89.8-866.7,438.6-1680.6,438.6c-813.9,0-1479.8-443.9-1950.1-967.1
				c-470.4-523.2-1189.1-1242-1839.2-1289.5c-650-47.6-1309.4,657-745.2,1696.5c200.8,369.9,919.9,1029,1955.4,1252.5
				C4026.1,3883,5923.5,3816.6,6351.5,3814.3z"/>
		</defs>
		<linearGradient id="SVGID_4_" gradientUnits="userSpaceOnUse" x1="5045.6558" y1="1143.3274" x2="4703.6538" y2="3520.0359">
			<stop  offset="0" style="stop-color:#AFCC58"/>
			<stop  offset="1" style="stop-color:#477315"/>
		</linearGradient>
		<use xlink:href="#SVGID_3_"  style="overflow:visible;fill:url(#SVGID_4_);"/>
		<clipPath id="SVGID_5_">
			<use xlink:href="#SVGID_3_"  style="overflow:visible;"/>
		</clipPath>
		<linearGradient id="SVGID_6_" gradientUnits="userSpaceOnUse" x1="5128.2241" y1="2924.4558" x2="4904.4658" y2="4405.7388">
			<stop  offset="0" style="stop-color:#AFCC58"/>
			<stop  offset="1" style="stop-color:#477315"/>
		</linearGradient>
		<path class="st5" d="M8831.8,3550c-1078.1-458-4664.8-465.1-5334.2-366.4C3124.1,2810.1,2497,2760.8,2497,2760.8l-1205,415.7
			l2783.4,1205l4298.4-408.7L8831.8,3550z"/>
	</g>
	<g id="green-pillow">
		<path class="st6" d="M2690.7,2165.3c169.1-162.1,387.6-186.7,581.3-172.6c193.8,14.1,491.1,112,694.1,517.9
			c105.7,211.4,162.1,500.3-169.1,676.5c-331.2,176.2-732.8,137.4-902,31.7c-169.1-105.7-334.7-232.5-334.7-285.4
			C2560.4,2880.6,2690.7,2165.3,2690.7,2165.3z"/>
		<path class="st7" d="M3588.1,2655.1c0,62.2-28.3,112.6-63.2,112.6c-34.9,0-63.2-50.4-63.2-112.6c0-62.2,28.3-112.6,63.2-112.6
			C3559.8,2542.5,3588.1,2592.9,3588.1,2655.1z"/>
	</g>
	<g id="yellow-pillow">
		<path class="st8" d="M2711.9,2133.7c180.3,234.8,281.9,517.9,56.4,838.5c-225.5,320.6-782.2,292.4-1074.6,56.4
			c-292.4-236.1-447.5-639.7-165.7-1017.1c179.8-240.7,677.2-258.7,856.9-167.1C2564.6,1936,2693.4,2109.6,2711.9,2133.7z"/>
		<path class="st9" d="M2447.7,2526.5c0,79.8-36.3,144.5-81,144.5c-44.8,0-81-64.7-81-144.5c0-79.8,36.3-144.5,81-144.5
			C2411.4,2382,2447.7,2446.7,2447.7,2526.5z"/>
	</g>
</g>
</svg>
